<?xml version="1.0" encoding="UTF-8"?>
<svg version="1.1" xmlns="http://www.w3.org/2000/svg" width="512" height="512">
<path d="M0 0 C2.20482252 0.66810914 4.4101062 1.334698 6.61581421 1.99987793 C12.54004841 3.79078793 18.45802159 5.60160075 24.37496948 7.41641617 C30.53235983 9.30151279 36.69502391 11.1691932 42.85742188 13.0378418 C50.40994854 15.3289789 57.96200746 17.62159522 65.51165771 19.92219543 C80.91860619 24.61569848 96.34014651 29.25617239 111.78182602 33.83411598 C114.97362874 34.78051645 118.16500322 35.72834664 121.35623169 36.67668152 C123.4157082 37.28861229 125.47518693 37.90053561 127.53466797 38.51245117 C128.53204294 38.80879298 129.52941792 39.10513479 130.55701637 39.41045666 C135.46594817 40.86831784 140.37581247 42.32289082 145.28765869 43.77090454 C149.86031199 45.11921221 154.43005035 46.47697895 158.99776077 47.8419342 C160.6561142 48.3355747 162.31553045 48.82566141 163.97608566 49.31184387 C166.23108761 49.97244015 168.48203142 50.64542212 170.73242188 51.3215332 C171.98615601 51.6927681 173.23989014 52.06400299 174.53161621 52.44648743 C180.86326381 54.8389379 184.71810531 57.73752879 187.9296875 63.73046875 C188.49502282 66.95561276 188.47006357 70.12289172 188.43762207 73.39077759 C188.44698201 74.84125396 188.44698201 74.84125396 188.45653105 76.32103288 C188.47247522 79.55883435 188.45985025 82.79588445 188.44726562 86.03369141 C188.45268659 88.35678038 188.4598091 90.67986592 188.46850586 93.00294495 C188.48675919 99.3158002 188.47965944 105.62839425 188.46698952 111.94125414 C188.45788342 117.88950368 188.4648391 123.83772105 188.4706983 129.78597145 C188.48210572 142.30270632 188.46899442 154.81932406 188.44749683 167.33603971 C188.42968406 178.03723658 188.43268131 188.73825952 188.45117188 199.43945312 C188.472677 211.89094602 188.48094577 224.34233569 188.46872282 236.79384458 C188.46243624 243.37507486 188.46156681 249.95620881 188.47486877 256.53743362 C188.48653018 262.74111862 188.4782156 268.94447993 188.45529175 275.14813042 C188.45005592 277.41020994 188.45142901 279.67231727 188.46034241 281.9343853 C188.53178121 301.92765381 186.04655977 320.34402904 177.9296875 338.73046875 C177.50478027 339.69581543 177.50478027 339.69581543 177.07128906 340.68066406 C169.99226601 356.41095728 160.20944983 370.72102019 148.9296875 383.73046875 C147.93269495 384.91069967 146.93666507 386.0917442 145.94140625 387.2734375 C136.29672957 398.65172541 126.25418529 409.34379998 114.5390625 418.62109375 C111.92564581 420.73373599 109.4604933 422.95082327 106.9921875 425.23046875 C102.09292816 429.68294029 96.91224218 433.63614205 91.56445312 437.53271484 C89.89016053 438.75942922 88.22940651 440.00282227 86.5703125 441.25 C61.68797309 459.86600861 35.09671593 476.07283944 7.73718262 490.75878906 C5.88534159 491.75430838 4.03691869 492.75599881 2.18847656 493.7578125 C-0.9269672 495.44090012 -4.05754054 497.09239684 -7.20040894 498.72366333 C-8.95229812 499.63896442 -10.69233922 500.57683247 -12.43188477 501.51538086 C-19.73215171 505.24215116 -25.88101583 507.46586255 -34.0703125 505.73046875 C-39.73217781 503.62339295 -44.99116927 500.93425628 -50.3203125 498.10546875 C-51.82654166 497.32744235 -53.33346792 496.55076413 -54.84106445 495.77539062 C-66.67226807 489.64670294 -78.2486802 483.1003541 -89.64453125 476.1953125 C-91.79662188 474.89574087 -93.95955404 473.61919449 -96.1328125 472.35546875 C-121.24588177 457.69015248 -146.47234545 440.62613282 -167.8046875 420.78125 C-170.20872612 418.60518056 -172.71118141 416.61224383 -175.2578125 414.60546875 C-185.49335609 406.30088586 -194.83376369 396.74278602 -202.97265625 386.3828125 C-205.21551523 383.54686977 -207.57689293 380.83712012 -209.9453125 378.10546875 C-234.18341851 348.97457737 -244.73576186 316.14290038 -244.58789062 278.61572266 C-244.59332503 276.26785348 -244.600455 273.91998773 -244.60913086 271.5721283 C-244.62719625 265.26104073 -244.62037049 258.95021785 -244.60761452 252.6391263 C-244.59845271 246.6865524 -244.60547999 240.73400161 -244.6113233 234.78142826 C-244.62266986 222.29176129 -244.60970266 209.80221269 -244.58812183 197.31256513 C-244.5701975 186.60708103 -244.5734101 175.90177017 -244.59179688 165.19628906 C-244.61320794 152.7243202 -244.62163308 140.25245396 -244.60934782 127.7804693 C-244.60311584 121.19206033 -244.60227084 114.60377069 -244.61549377 108.01536942 C-244.62703631 101.83452239 -244.61905546 95.65400372 -244.59591675 89.47319221 C-244.5906244 87.20522037 -244.59215236 84.93722092 -244.60096741 82.66926003 C-244.61188334 79.57605823 -244.59820711 76.48391196 -244.57824707 73.39077759 C-244.58716996 72.49196039 -244.59609284 71.59314319 -244.60528612 70.6670891 C-244.53675356 65.19982722 -243.72110824 62.06167849 -240.0703125 57.73046875 C-235.3819538 53.88903227 -230.43764334 52.33866871 -224.71972656 50.67553711 C-223.78876223 50.39593675 -222.85779789 50.11633638 -221.89862251 49.82826328 C-218.79715928 48.89938641 -215.69162972 47.98494073 -212.5859375 47.0703125 C-210.37209346 46.41013132 -208.1585273 45.74901769 -205.94522095 45.08703613 C-199.97890514 43.30526924 -194.00901085 41.53579566 -188.0382309 39.76905441 C-181.83118545 37.93079762 -175.62683053 36.08350876 -169.42236328 34.23657227 C-166.90726257 33.48794237 -164.39215635 32.73933099 -161.87704468 31.99073792 C-160.62621471 31.61843111 -159.37538475 31.24612431 -158.08665085 30.86253548 C-154.90241047 29.91525746 -151.71789642 28.96890825 -148.53320229 28.02315706 C-132.46205729 23.25010382 -116.40953583 18.42025771 -100.376297 13.52140617 C-94.16722128 11.62552852 -87.95560075 9.73799844 -81.74423218 7.84964848 C-76.88241611 6.37052808 -72.02258573 4.88542046 -67.16662598 3.38717651 C-62.63925537 1.99042093 -58.10745053 0.60912853 -53.57188034 -0.76075745 C-51.93215778 -1.25912099 -50.29416301 -1.76321496 -48.65819168 -2.27375793 C-30.35278633 -7.9807314 -18.01981824 -5.57093877 0 0 Z M-37.8059082 27.30297852 C-38.71784156 27.5785814 -39.62977491 27.85418428 -40.56934261 28.13813877 C-43.62903859 29.06349834 -46.68754148 29.99274284 -49.74609375 30.921875 C-51.91184293 31.57749501 -54.0776772 32.232834 -56.24359131 32.88790894 C-60.87590792 34.28942225 -65.50774277 35.69251195 -70.13919067 37.09689331 C-82.23427638 40.76437663 -94.33193755 44.4233478 -106.4296875 48.08203125 C-107.642847 48.44902319 -108.85600651 48.81601513 -110.10592842 49.19412804 C-126.46470941 54.14214112 -142.83129096 59.06290567 -159.2109375 63.94140625 C-160.12477392 64.21367727 -161.03861034 64.4859483 -161.98013878 64.76646996 C-170.51204285 67.3082236 -179.04504148 69.84623815 -187.58055687 72.37583923 C-190.6320912 73.28080249 -193.6829067 74.1881709 -196.73355865 75.09610367 C-198.79642687 75.70902006 -200.86031446 76.31841146 -202.92425537 76.92770386 C-204.12753479 77.28599274 -205.33081421 77.64428162 -206.57055664 78.01342773 C-207.61651505 78.3232811 -208.66247345 78.63313446 -209.74012756 78.95237732 C-212.00435964 79.51560165 -212.00435964 79.51560165 -213.0703125 80.73046875 C-213.17710684 83.52655833 -213.21809578 86.2982456 -213.21748352 89.09510803 C-213.22116021 89.98305492 -213.2248369 90.87100181 -213.228625 91.78585619 C-213.23970969 94.78570996 -213.2435139 97.78552915 -213.24731445 100.78540039 C-213.253576 102.92704886 -213.26022252 105.06869624 -213.26722717 107.21034241 C-213.28467733 113.05001045 -213.29520201 118.88967027 -213.3034327 124.72935796 C-213.30857929 128.38036381 -213.31465548 132.03136709 -213.32094383 135.68237114 C-213.34001567 147.11183211 -213.35423691 158.54128657 -213.3625558 169.97076041 C-213.37230629 183.14965461 -213.39856013 196.32837987 -213.43905669 209.50721461 C-213.46929043 219.69763549 -213.48403195 229.88800819 -213.48733681 240.07847303 C-213.489681 246.16114149 -213.4985576 252.24362989 -213.52379799 258.32625008 C-213.54720756 264.06116105 -213.55126033 269.79577516 -213.54103661 275.53072166 C-213.54054409 277.62517412 -213.54677962 279.7196418 -213.56059265 281.81404877 C-213.66593331 298.74762526 -211.4788237 313.26591581 -204.0703125 328.73046875 C-203.77560059 329.35501953 -203.48088867 329.97957031 -203.17724609 330.62304688 C-193.90542703 350.01594071 -180.18777208 365.65895889 -165.0703125 380.73046875 C-164.0147026 381.80769063 -162.96007856 382.88587915 -161.90625 383.96484375 C-154.96126047 391.04100306 -147.90667649 397.6331037 -140.0703125 403.73046875 C-139.01581537 404.57413317 -137.9624808 405.41925222 -136.91015625 406.265625 C-108.79461423 428.7769171 -78.16819975 447.93085171 -46.32485962 464.70248413 C-44.95659267 465.42432257 -43.59095465 466.15116834 -42.2281189 466.88320923 C-40.32323739 467.90277416 -38.40814794 468.89962936 -36.48828125 469.890625 C-35.39281982 470.46433838 -34.2973584 471.03805176 -33.16870117 471.62915039 C-28.85775465 473.16147091 -26.01773763 472.49218044 -21.83886719 470.85766602 C-21.14696289 470.50760498 -20.45505859 470.15754395 -19.7421875 469.796875 C-18.95223389 469.40081055 -18.16228027 469.00474609 -17.34838867 468.59667969 C-16.09699097 467.95134277 -16.09699097 467.95134277 -14.8203125 467.29296875 C-13.93770752 466.8434082 -13.05510254 466.39384766 -12.14575195 465.93066406 C16.97870846 450.98916159 45.01818337 433.76320677 70.9296875 413.73046875 C71.94546875 412.96863281 72.96125 412.20679688 74.0078125 411.421875 C86.44969937 402.06492542 98.09916362 391.91544614 108.9296875 380.73046875 C111.18910759 378.45372182 113.44761621 376.18508028 115.78125 373.984375 C121.74855286 368.29309276 126.73115546 361.91627234 131.69580078 355.35693359 C132.71804988 354.0094418 133.75726116 352.67483722 134.80078125 351.34375 C144.92862197 337.81567499 152.12235385 322.14266427 155.9296875 305.73046875 C156.10880393 305.01858808 156.28792036 304.3067074 156.47246456 303.57325459 C157.10670431 299.62986589 157.06374651 295.76490621 157.04994202 291.77714539 C157.05079644 290.87449174 157.05165087 289.9718381 157.05253118 289.04183131 C157.05417837 286.01704379 157.04867703 282.99231171 157.04321289 279.9675293 C157.04293083 277.79933168 157.04308912 275.63113396 157.0436554 273.4629364 C157.04394263 267.57498216 157.03805781 261.68704824 157.03108144 255.79909873 C157.02483562 249.6464878 157.02424313 243.49387643 157.02305603 237.34126282 C157.01994635 225.68957159 157.01173783 214.03788973 157.00170654 202.38620263 C156.99053416 189.12152773 156.98503211 175.85685237 156.98001111 162.59217393 C156.96955493 135.30493368 156.95196248 108.01770174 156.9296875 80.73046875 C150.72273465 78.3668183 150.72273465 78.3668183 144.41452026 76.2961731 C143.61292732 76.05318733 142.81133438 75.81020157 141.98545074 75.5598526 C141.1328643 75.30436394 140.28027786 75.04887527 139.40185547 74.78564453 C138.47795769 74.50643913 137.55405991 74.22723373 136.60216522 73.93956757 C133.54283522 73.01574215 130.48236725 72.09574829 127.421875 71.17578125 C125.24526304 70.51937955 123.06872034 69.86274815 120.89224243 69.2059021 C115.06731781 67.44875768 109.24138028 65.69499526 103.41519165 63.94204712 C98.60539933 62.49454392 93.79612956 61.04530906 88.986866 59.59605026 C76.9935068 55.98188679 64.99909655 52.37122565 53.00413895 48.76237106 C44.78140046 46.28824172 36.55957126 43.81110921 28.3382206 41.33237267 C20.86866103 39.0804116 13.39824577 36.83130473 5.92730713 34.58392334 C2.93426764 33.68350249 -0.05842698 32.78194855 -3.05084229 31.87945557 C-7.12930761 30.64956325 -11.20908893 29.42409835 -15.2890625 28.19921875 C-16.47341888 27.84145355 -17.65777527 27.48368835 -18.87802124 27.11508179 C-19.94114532 26.7967337 -21.00426941 26.47838562 -22.09960938 26.15039062 C-23.01899292 25.87384644 -23.93837646 25.59730225 -24.88562012 25.31237793 C-29.45736448 24.09465958 -33.42272627 25.96677612 -37.8059082 27.30297852 Z " fill="#000000" transform="translate(284.0703125,6.26953125)"/>
</svg>
